#!OML:ASF E:/inclinewalkrobotboard/Project1/Captureday1/Session1/subject1.ASF
:FULLY-SPECIFIED
:DEGREES
26
root 0 0 0 0.38599811451207655 -3.235029161687246 1.0359893904914175
lowerback 11.47455224135079 0.6844516341907368 -0.3572982060066118
upperback -2.6951536347120397 0.8874133453366114 0.05873196209100007
thorax -9.335348437770183 0.39807935046654813 0.12756712757213684
lowerneck -9.984519310129809 0.16827180056532365 2.2735796788860325
upperneck 18.56129918398626 0.9914150099009538 -5.340551455346748
head 7.48127613049467 0.21169971361262596 -2.0365378157327396
rclavicle 1.3517020600467604E-16 -7.2898220672061515E-16
rhumerus 1.0230987594316865 2.3363764448048716 -60.445230383105994
rradius 54.77383639131453
rwrist 16.920233641437534
rhand -27.88803434204635 -25.17117455706288
rfingers 7.125019999999987
rthumb -1.2952535221345736 -55.36911572779046
lclavicle -8.019137545448921E-16 -2.4254858969620767E-16
lhumerus 1.2984144697692237 -9.079277043381953 60.24335029650017
lradius 54.37886981166679
lwrist -10.469179770097005
lhand -38.26645930663567 -33.096825431801086
lfingers 7.125019999999984
lthumb -11.235065994933176 -3.3103411653759665
rfemur -25.017900291891245 1.7447199982446473 20.120181414896685
rtibia 48.63878252866689
rfoot -6.674976653045287 -9.564143317169394
rtoes -0.8317115837541844
lfemur -15.93775362554511 0.26346629646639363 -16.358409571260413
ltibia 46.87459170619793
lfoot -4.159568719524901 -6.183505160525947
ltoes -6.739433624631539
27
root 0 0 0 0.40292244911768726 -3.1655784047440663 1.1238856171493115
lowerback 11.466247469179448 0.6463871169186404 -0.4619256160826323
upperback -2.7026926750986657 0.8246458230291432 0.05573211279538248
thorax -9.34072907435141 0.3700854577081938 0.18795797363055256
lowerneck -9.968655435512208 0.19135217191268072 2.2789458375778895
upperneck 18.508465126000676 1.0193610823767663 -5.348802013907515
head 7.459429604786932 0.22633255872436253 -2.034950723113764
rclavicle 5.3374011808170845E-17 -7.761831521931904E-16
rhumerus 0.5602272977488596 2.0211309724470095 -60.721156084922754
rradius 54.35370007504689
rwrist 16.723447060051846
rhand -27.737821497520265 -24.44062694909267
rfingers 7.125019999999987
rthumb -1.1525668388088421 -54.659319397113315
lclavicle -8.714843233720047E-16 -3.0395223670043754E-16
lhumerus 0.9267934514799343 -8.984027206560418 60.48926774077422
lradius 54.10527675124921
lwrist -10.286732004190432
lhand -38.14368403352359 -32.480627334047874
lfingers 7.125019999999985
lthumb -11.122909896754146 -2.6739176459753295
rfemur -25.165900967685545 1.762730911861047 20.083335960514503
rtibia 48.17330167962083
rfoot -7.0324515964515815 -9.725145987773695
rtoes -1.1305119595027875
lfemur -15.678511492918133 -0.08398127576971426 -16.709911049493414
ltibia 44.257629692016614
lfoot -5.2880701848653615 -5.21655295925896
ltoes -6.365102255750216
28
root 0 0 0 0.45784400494631683 -3.1762023903869974 1.2246306085893106
lowerback 11.498135223100507 0.6421706877859347 -0.5069694541918516
upperback -2.7715572716808716 0.8149186780078137 0.02096010180742902
thorax -9.438049688206956 0.36417195318575774 0.18360083142126515
lowerneck -9.818093454715559 0.2548859505438146 2.366779090404196
upperneck 18.537711837900666 1.118768766346672 -5.48691713800441
head 7.444474378356792 0.26789000039505506 -2.0837885541010563
rclavicle 1.913226277570125E-16 -7.45727399689135E-16
rhumerus 2.3049612197769243 3.241058155917205 -59.72102227805584
rradius 55.94485782063142
rwrist 17.431270322817966
rhand -28.309814106502273 -27.12460507179448
rfingers 7.125019999999986
rthumb -1.6857926570095128 -57.35930263942784
lclavicle -8.370331595577052E-16 -1.9232339791427784E-16
lhumerus 2.784894509724193 -9.517231236719484 59.23488740992427
lradius 55.548086442650444
lwrist -11.13989627761459
lhand -38.764420842059394 -35.52008710215785
lfingers 7.125019999999983
lthumb -11.710407796861944 -5.807910511981447
rfemur -25.78082333315281 1.647614940418337 19.777832885855616
rtibia 48.38550949293494
rfoot -7.073225783233675 -9.911344195368725
rtoes -1.4330999188147913
lfemur -15.493180629752622 -0.15268158721691982 -16.834673585749627
ltibia 43.72209584138775
lfoot -5.544329353814574 -5.053464379202564
ltoes -6.328089489717777
29
root 0 0 0 0.4629327156133778 -3.1706032288807897 1.2473613651667252
lowerback 11.502808212041668 0.6369627823859624 -0.5232841888563707
upperback -2.7791829121414717 0.8060890175965701 0.016813746857722967
thorax -9.449625734864632 0.35995384781019174 0.1911066344923955
lowerneck -9.80019233518696 0.2623672611889245 2.3762511121122367
upperneck 18.544813635945143 1.1312377967476652 -5.503557015156058
head 7.444133603007651 0.2730609595364477 -2.089535049455145
rclavicle 2.0698164266818353E-16 -7.405070567471271E-16
rhumerus 2.5326901120130536 3.403844838724549 -59.59403870813996
rradius 56.151852671748244
rwrist 17.51998371237859
rhand -28.384295591292727 -27.46930683861898
rfingers 7.125019999999986
rthumb -1.7531434864191464 -57.7079613834601
lclavicle -8.367095781710686E-16 -1.774906080353599E-16
lhumerus 3.051390368457792 -9.593492701868486 59.05158618747459
lradius 55.756487865601784
lwrist -11.262136710250669
lhand -38.85378188423766 -35.955090518277174
lfingers 7.125019999999983
lthumb -11.795355577295814 -6.261377273239994
rfemur -25.74052198467846 1.678065583651779 19.80187218027652
rtibia 48.15850491987475
rfoot -7.19142436399555 -9.939969277326826
rtoes -1.5133073466798905
lfemur -15.223003939777787 -0.2539196534277609 -17.012742548062732
ltibia 42.95313426116411
lfoot -5.877659434857429 -4.823990757486718
ltoes -6.2511646889819295
